<?xml version="1.0" encoding="UTF-8" standalone="no"?>
<!-- Created with Inkscape (http://www.inkscape.org/) -->
<svg
   xmlns:svg="http://www.w3.org/2000/svg"
   xmlns="http://www.w3.org/2000/svg"
   version="1.0"
   width="620"
   height="325.51999"
   id="svg2">
  <defs
     id="defs4" />
  <g
     transform="translate(882.57149,-1610.0078)"
     id="layer1">
    <path
       d="M -294.7413,1925.2758 C -296.26397,1924.778 -297.56986,1923.6104 -298.32605,1922.0704 C -298.91753,1920.866 -298.99635,1920.4383 -298.99635,1918.4336 C -298.99635,1916.4269 -298.91784,1916.0019 -298.32351,1914.7916 C -296.88449,1911.8612 -293.89882,1910.6301 -290.6101,1911.6113 C -288.07602,1912.3673 -286.51506,1914.5827 -286.27442,1917.7646 C -285.94077,1922.1759 -288.32355,1925.2763 -292.2297,1925.5134 C -293.1132,1925.567 -294.15096,1925.4688 -294.7413,1925.2758 z M -290.0921,1923.0665 C -288.93536,1922.1444 -288.34034,1920.9281 -288.17978,1919.1574 C -287.93363,1916.4428 -288.94395,1914.251 -290.83786,1913.3909 C -293.31008,1912.2682 -296.07625,1913.5312 -296.84972,1916.1358 C -298.12383,1920.4261 -295.99262,1924.1012 -292.36393,1923.8712 C -291.27776,1923.8024 -290.80526,1923.635 -290.0921,1923.0665 z M -283.57188,1918.4336 L -283.57188,1911.4986 L -282.61532,1911.4986 L -281.65877,1911.4986 L -281.65877,1914.3683 L -281.65877,1917.2379 L -278.07168,1917.2379 L -274.48459,1917.2379 L -274.48459,1914.3683 L -274.48459,1911.4986 L -273.52804,1911.4986 L -272.57148,1911.4986 L -272.57148,1918.4336 L -272.57148,1925.3687 L -273.52804,1925.3687 L -274.48459,1925.3687 L -274.48459,1922.1403 L -274.48459,1918.9119 L -278.07168,1918.9119 L -281.65877,1918.9119 L -281.65877,1922.1403 L -281.65877,1925.3687 L -282.61532,1925.3687 L -283.57188,1925.3687 L -283.57188,1918.4336 z M -345.19965,1917.8625 C -346.72232,1917.3647 -348.02822,1916.197 -348.7844,1914.6571 C -349.37588,1913.4527 -349.4547,1913.025 -349.4547,1911.0203 C -349.4547,1909.0136 -349.37619,1908.5886 -348.78186,1907.3783 C -347.34284,1904.4479 -344.35717,1903.2168 -341.06845,1904.198 C -338.53437,1904.954 -336.97341,1907.1694 -336.73277,1910.3513 C -336.39912,1914.7626 -338.7819,1917.863 -342.68805,1918.1 C -343.57155,1918.1537 -344.60932,1918.0555 -345.19965,1917.8625 z M -340.55045,1915.6532 C -339.39372,1914.7311 -338.79869,1913.5148 -338.63813,1911.7441 C -338.39199,1909.0295 -339.4023,1906.8377 -341.29621,1905.9776 C -343.76843,1904.8549 -346.5346,1906.1179 -347.30807,1908.7225 C -348.58218,1913.0128 -346.45097,1916.6879 -342.82228,1916.4579 C -341.73611,1916.389 -341.26362,1916.2217 -340.55045,1915.6532 z M -334.26937,1911.0203 L -334.26937,1904.0853 L -333.31281,1904.0853 L -332.35626,1904.0853 L -332.35626,1906.955 L -332.35626,1909.8246 L -328.76917,1909.8246 L -325.18208,1909.8246 L -325.18208,1906.955 L -325.18208,1904.0853 L -324.22553,1904.0853 L -323.26897,1904.0853 L -323.26897,1911.0203 L -323.26897,1917.9554 L -324.22553,1917.9554 L -325.18208,1917.9554 L -325.18208,1914.727 L -325.18208,1911.4986 L -328.76917,1911.4986 L -332.35626,1911.4986 L -332.35626,1914.727 L -332.35626,1917.9554 L -333.31281,1917.9554 L -334.26937,1917.9554 L -334.26937,1911.0203 z M -298.85387,1911.5159 C -299.29834,1911.1806 -299.36317,1911.0023 -299.17257,1910.6392 C -298.51224,1909.3812 -299.92175,1908.6359 -301.23125,1909.5506 C -302.77468,1910.6288 -304.59522,1910.2663 -305.22662,1908.7551 C -305.62701,1907.7968 -305.49706,1906.9299 -304.80447,1905.9391 C -304.21941,1905.1022 -304.32375,1904.0807 -305.02036,1903.8251 C -305.40724,1903.6832 -305.78207,1903.7944 -306.4541,1904.2504 C -308.12195,1905.3823 -310.04255,1904.9211 -310.5918,1903.2568 C -310.9013,1902.319 -310.61433,1901.0108 -309.98451,1900.488 C -309.45976,1900.0525 -309.54782,1898.8893 -310.12909,1898.5783 C -310.52726,1898.3652 -310.81796,1898.4314 -311.66628,1898.9286 C -313.94149,1900.2619 -316.28238,1899.145 -316.05147,1896.8363 L -315.97523,1896.0741 L -335.82191,1891.4888 C -346.73758,1888.9668 -355.69016,1886.925 -355.71649,1886.9513 C -355.74284,1886.9776 -353.71733,1890.545 -351.21537,1894.8789 L -346.66632,1902.7585 L -347.19788,1903.189 L -347.72946,1903.6194 L -349.83764,1899.9663 C -350.99713,1897.9572 -353.37613,1893.8086 -355.12433,1890.7472 C -358.05494,1885.6153 -358.34948,1885.1876 -358.9007,1885.2634 C -359.22951,1885.3087 -368.72472,1887.9643 -380.00118,1891.1647 L -400.5038,1896.9838 L -413.06217,1894.1425 L -425.62051,1891.3012 L -425.62051,1890.6386 C -425.62051,1890.2742 -425.5398,1889.9785 -425.44115,1889.9816 C -425.34251,1889.9846 -421.33394,1890.8823 -416.53322,1891.9765 C -411.7325,1893.0707 -407.76688,1893.9363 -407.72073,1893.8999 C -407.6311,1893.8293 -426.04601,1857.2241 -426.33151,1856.9054 C -426.42466,1856.8014 -431.35671,1858.0467 -437.29164,1859.6728 L -448.08239,1862.6293 L -448.30582,1861.9884 L -448.52922,1861.3475 L -437.49336,1858.3242 C -431.42362,1856.6614 -426.26575,1855.3009 -426.03142,1855.3009 C -425.79709,1855.3009 -416.82595,1857.8354 -406.09557,1860.933 C -395.36518,1864.0307 -386.54673,1866.5261 -386.49902,1866.4783 C -386.45129,1866.4306 -391.44076,1863.0084 -397.58673,1858.8734 L -408.7612,1851.3551 L -408.82333,1840.0558 L -408.88546,1828.7565 L -408.1657,1828.7565 L -407.44594,1828.7565 L -407.44161,1839.6971 L -407.43728,1850.6377 L -395.00339,1859.0076 C -388.16475,1863.611 -382.32873,1867.4691 -382.03442,1867.581 C -381.63283,1867.7338 -377.11872,1866.5264 -363.93981,1862.7412 C -354.28206,1859.9673 -346.35438,1857.7237 -346.32275,1857.7553 C -346.29108,1857.787 -346.19909,1858.0817 -346.11828,1858.4102 L -345.97138,1859.0076 L -363.84026,1864.1368 C -373.66816,1866.9578 -381.87716,1869.2485 -382.08253,1869.2271 C -382.28788,1869.2057 -391.90197,1866.4579 -403.44717,1863.1208 C -414.99238,1859.7838 -424.40848,1857.1252 -424.37184,1857.2129 C -423.96786,1858.1793 -401.30142,1893.0083 -401.11836,1892.9439 C -400.98155,1892.8957 -391.00876,1890.0615 -378.95658,1886.6456 L -357.04357,1880.4348 L -336.8768,1887.3606 C -325.78507,1891.1698 -316.63585,1894.2582 -316.54519,1894.2237 C -316.45454,1894.1892 -320.22476,1887.489 -324.92346,1879.3344 L -333.46653,1864.5078 L -332.89026,1864.1901 C -332.5733,1864.0154 -332.27899,1863.9078 -332.23623,1863.951 C -332.12884,1864.0594 -314.21737,1895.1995 -313.79481,1896.0124 C -313.47049,1896.6364 -313.47981,1896.6654 -313.98739,1896.6103 C -314.60953,1896.5428 -314.85926,1897.2198 -314.41128,1897.7596 C -313.99705,1898.2587 -313.40762,1898.1908 -312.10187,1897.4933 C -310.73811,1896.7648 -309.86087,1896.8473 -308.8695,1897.7971 C -307.98267,1898.6467 -307.97985,1899.8492 -308.86084,1901.4647 L -309.51847,1902.6706 L -308.96872,1903.1268 C -308.37431,1903.6201 -307.99965,1903.5635 -306.92479,1902.8181 C -305.2392,1901.6491 -302.94215,1902.704 -302.94215,1904.6471 C -302.94215,1905.2294 -303.17359,1905.9926 -303.53945,1906.6169 C -304.17202,1907.6963 -304.13155,1908.2483 -303.3908,1908.6448 C -303.04297,1908.8309 -302.70112,1908.747 -301.9033,1908.2794 C -300.44286,1907.4236 -299.17171,1907.4579 -298.29106,1908.3771 C -297.52457,1909.1772 -297.3681,1910.6122 -297.95588,1911.4514 C -298.28317,1911.9187 -298.31672,1911.9211 -298.85387,1911.5159 z M -436.31165,1896.1009 C -437.83432,1895.6031 -439.14021,1894.4354 -439.89639,1892.8955 C -440.48788,1891.691 -440.5667,1891.2633 -440.5667,1889.2587 C -440.5667,1887.252 -440.48819,1886.827 -439.89386,1885.6167 C -438.45484,1882.6862 -435.46916,1881.4552 -432.18045,1882.4363 C -429.64636,1883.1924 -428.08541,1885.4077 -427.84476,1888.5897 C -427.51112,1893.001 -429.8939,1896.1013 -433.80004,1896.3384 C -434.68354,1896.392 -435.72131,1896.2939 -436.31165,1896.1009 z M -431.66245,1893.8915 C -430.50571,1892.9694 -429.91069,1891.7531 -429.75013,1889.9825 C -429.50398,1887.2678 -430.5143,1885.076 -432.40821,1884.216 C -434.88043,1883.0933 -437.6466,1884.3562 -438.42007,1886.9608 C -439.69418,1891.2512 -437.56297,1894.9262 -433.93427,1894.6962 C -432.8481,1894.6274 -432.37561,1894.46 -431.66245,1893.8915 z M -454.07806,1889.2587 L -454.07806,1882.3236 L -453.1215,1882.3236 L -452.16495,1882.3236 L -452.16495,1885.1933 L -452.16495,1888.063 L -448.57786,1888.063 L -444.99077,1888.063 L -444.99077,1885.1933 L -444.99077,1882.3236 L -444.03422,1882.3236 L -443.07766,1882.3236 L -443.07766,1889.2587 L -443.07766,1896.1937 L -444.03422,1896.1937 L -444.99077,1896.1937 L -444.99077,1892.9653 L -444.99077,1889.7369 L -448.57786,1889.7369 L -452.16495,1889.7369 L -452.16495,1892.9653 L -452.16495,1896.1937 L -453.1215,1896.1937 L -454.07806,1896.1937 L -454.07806,1889.2587 z M -458.55159,1871.4695 C -460.07426,1870.9717 -461.38015,1869.8041 -462.13633,1868.2641 C -462.72782,1867.0597 -462.80664,1866.632 -462.80664,1864.6273 C -462.80664,1862.6206 -462.72813,1862.1956 -462.13379,1860.9853 C -460.69478,1858.0549 -457.7091,1856.8238 -454.42039,1857.805 C -451.8863,1858.561 -450.32534,1860.7764 -450.0847,1863.9583 C -449.75105,1868.3697 -452.13383,1871.47 -456.03998,1871.7071 C -456.92348,1871.7607 -457.96125,1871.6625 -458.55159,1871.4695 z M -453.90239,1869.2602 C -452.74565,1868.3381 -452.15062,1867.1218 -451.99006,1865.3511 C -451.74392,1862.6365 -452.75423,1860.4447 -454.64814,1859.5846 C -457.12036,1858.462 -459.88653,1859.7249 -460.66,1862.3295 C -461.93411,1866.6198 -459.80291,1870.2949 -456.17421,1870.0649 C -455.08804,1869.9961 -454.61555,1869.8287 -453.90239,1869.2602 z M -339.93859,1863.0997 C -341.46126,1862.6019 -342.76715,1861.4342 -343.52334,1859.8943 C -344.11482,1858.6898 -344.19364,1858.2622 -344.19364,1856.2575 C -344.19364,1854.2508 -344.11513,1853.8258 -343.5208,1852.6155 C -342.08178,1849.685 -339.09611,1848.454 -335.80739,1849.4351 C -333.27331,1850.1912 -331.71235,1852.4065 -331.47171,1855.5885 C -331.13806,1859.9998 -333.52084,1863.1001 -337.42699,1863.3372 C -338.31049,1863.3908 -339.34825,1863.2927 -339.93859,1863.0997 z M -335.28939,1860.8903 C -334.13265,1859.9682 -333.53763,1858.7519 -333.37707,1856.9813 C -333.13093,1854.2666 -334.14124,1852.0748 -336.03515,1851.2148 C -338.50737,1850.0921 -341.27354,1851.355 -342.04701,1853.9596 C -343.32112,1858.25 -341.18991,1861.925 -337.56122,1861.695 C -336.47505,1861.6262 -336.00256,1861.4588 -335.28939,1860.8903 z M -456.94773,1844.5442 L -456.94773,1833.0701 L -457.48579,1832.9425 C -462.82744,1831.6761 -497.23683,1823.7726 -497.26058,1823.8067 C -497.27873,1823.8328 -495.26723,1827.3515 -492.79054,1831.6261 C -490.31385,1835.9008 -488.28466,1839.5254 -488.28122,1839.681 C -488.27158,1840.1161 -489.2549,1840.3425 -489.50133,1839.9618 C -489.61688,1839.7833 -491.99643,1835.6825 -494.78922,1830.8489 C -497.58198,1826.0153 -499.99537,1822.0606 -500.15227,1822.0606 C -500.30917,1822.0606 -509.51144,1824.6346 -520.60175,1827.7807 C -531.69209,1830.9267 -541.06441,1833.5755 -541.42916,1833.6669 C -541.89001,1833.7823 -545.92115,1832.9674 -554.64124,1830.9958 C -566.53117,1828.3076 -567.19016,1828.1311 -567.1905,1827.6347 C -567.19069,1827.3465 -567.09869,1827.0538 -566.98603,1826.9841 C -566.87337,1826.9145 -562.811,1827.7594 -557.95853,1828.8617 C -553.10606,1829.9639 -549.12093,1830.8486 -549.10271,1830.8275 C -549.0441,1830.7597 -567.69455,1793.9688 -567.88763,1793.7714 C -567.99001,1793.6667 -573.00189,1794.8322 -579.02513,1796.3615 C -590.27567,1799.2179 -590.51758,1799.2564 -590.3268,1798.1613 C -590.28433,1797.9175 -586.95374,1796.9782 -578.89628,1794.9376 L -567.52567,1792.058 L -547.83118,1797.7355 C -536.99921,1800.8581 -528.09957,1803.3758 -528.05421,1803.3305 C -528.00885,1803.2851 -533.00267,1799.8555 -539.15163,1795.709 L -550.33155,1788.1701 L -550.39368,1776.8969 L -550.4558,1765.6238 L -549.73604,1765.6238 L -549.01628,1765.6238 L -549.00535,1776.5644 L -548.99443,1787.505 L -536.15933,1796.114 C -529.10001,1800.8489 -523.21315,1804.697 -523.07739,1804.6651 C -522.94163,1804.6333 -514.97842,1802.351 -505.38138,1799.5933 C -492.54401,1795.9045 -487.8837,1794.6558 -487.74853,1794.8684 C -487.17383,1795.7727 -487.23888,1795.7953 -505.31361,1800.9724 C -515.07946,1803.7696 -523.26734,1806.0537 -523.50894,1806.0482 C -523.87628,1806.0399 -563.281,1794.7687 -565.36261,1794.0766 C -566.02838,1793.8552 -566.03667,1793.8628 -565.69746,1794.3839 C -565.50612,1794.6778 -560.31809,1802.7471 -554.16849,1812.3157 C -547.96818,1821.9631 -542.83585,1829.713 -542.64715,1829.713 C -542.46,1829.713 -532.46284,1826.9223 -520.43122,1823.5114 L -498.55559,1817.3097 L -480.09668,1823.6405 C -469.94427,1827.1225 -460.74327,1830.2871 -459.65002,1830.673 C -457.70214,1831.3605 -457.66897,1831.3639 -457.99709,1830.8427 C -458.18126,1830.5502 -462.06923,1823.8086 -466.637,1815.8613 C -474.37815,1802.3928 -474.91231,1801.3899 -474.50379,1801.0912 C -474.26274,1800.915 -473.9734,1800.8014 -473.86084,1800.839 C -473.74828,1800.8765 -469.57394,1808.0058 -464.58454,1816.682 L -455.51289,1832.4567 L -455.51289,1844.2375 L -455.51289,1856.0183 L -456.23031,1856.0183 L -456.94773,1856.0183 L -456.94773,1844.5442 z M -486.77,1854.7298 C -488.29267,1854.232 -489.59856,1853.0643 -490.35474,1851.5244 C -490.94623,1850.3199 -491.02505,1849.8923 -491.02505,1847.8876 C -491.02505,1845.8809 -490.94654,1845.4559 -490.35221,1844.2456 C -488.91319,1841.3151 -485.92751,1840.0841 -482.6388,1841.0653 C -480.10472,1841.8213 -478.54376,1844.0366 -478.30311,1847.2186 C -477.96947,1851.6299 -480.35225,1854.7303 -484.25839,1854.9673 C -485.14189,1855.0209 -486.17966,1854.9228 -486.77,1854.7298 z M -482.1208,1852.5204 C -480.96406,1851.5984 -480.36904,1850.382 -480.20848,1848.6114 C -479.96233,1845.8968 -480.97265,1843.705 -482.86656,1842.8449 C -485.33878,1841.7222 -488.10495,1842.9852 -488.87842,1845.5897 C -490.15253,1849.8801 -488.02132,1853.5552 -484.39262,1853.3252 C -483.30645,1853.2563 -482.83396,1853.0889 -482.1208,1852.5204 z M -475.83972,1847.8876 L -475.83972,1840.9526 L -474.88316,1840.9526 L -473.9266,1840.9526 L -473.9266,1843.8222 L -473.9266,1846.6919 L -470.33952,1846.6919 L -466.75243,1846.6919 L -466.75243,1843.8222 L -466.75243,1840.9526 L -465.79588,1840.9526 L -464.83932,1840.9526 L -464.83932,1847.8876 L -464.83932,1854.8226 L -465.79588,1854.8226 L -466.75243,1854.8226 L -466.75243,1851.5943 L -466.75243,1848.3659 L -470.33952,1848.3659 L -473.9266,1848.3659 L -473.9266,1851.5943 L -473.9266,1854.8226 L -474.88316,1854.8226 L -475.83972,1854.8226 L -475.83972,1847.8876 z M -577.882,1832.9681 C -579.40467,1832.4704 -580.71056,1831.3027 -581.46674,1829.7627 C -582.05823,1828.5583 -582.13705,1828.1306 -582.13705,1826.1259 C -582.13705,1824.1192 -582.05854,1823.6942 -581.46421,1822.484 C -580.02519,1819.5535 -577.03951,1818.3225 -573.7508,1819.3036 C -571.21671,1820.0596 -569.65576,1822.275 -569.41511,1825.4569 C -569.08146,1829.8683 -571.46425,1832.9686 -575.37039,1833.2057 C -576.25389,1833.2593 -577.29166,1833.1611 -577.882,1832.9681 z M -573.2328,1830.7588 C -572.07606,1829.8367 -571.48103,1828.6204 -571.32048,1826.8497 C -571.07433,1824.1351 -572.08465,1821.9433 -573.97856,1821.0832 C -576.45078,1819.9606 -579.21695,1821.2235 -579.99042,1823.8281 C -581.26453,1828.1184 -579.13332,1831.7935 -575.50462,1831.5635 C -574.41845,1831.4947 -573.94596,1831.3273 -573.2328,1830.7588 z M -595.40927,1826.1259 L -595.40927,1819.1909 L -594.45271,1819.1909 L -593.49616,1819.1909 L -593.49616,1822.0606 L -593.49616,1824.9302 L -589.90907,1824.9302 L -586.32198,1824.9302 L -586.32198,1822.0606 L -586.32198,1819.1909 L -585.36543,1819.1909 L -584.40887,1819.1909 L -584.40887,1826.1259 L -584.40887,1833.061 L -585.36543,1833.061 L -586.32198,1833.061 L -586.32198,1829.8326 L -586.32198,1826.6042 L -589.90907,1826.6042 L -593.49616,1826.6042 L -593.49616,1829.8326 L -593.49616,1833.061 L -594.45271,1833.061 L -595.40927,1833.061 L -595.40927,1826.1259 z M -410.48463,1826.5114 C -412.0073,1826.0136 -413.31319,1824.8459 -414.06937,1823.306 C -414.66086,1822.1015 -414.73968,1821.6739 -414.73968,1819.6692 C -414.73968,1817.6625 -414.66117,1817.2375 -414.06684,1816.0272 C -412.62782,1813.0967 -409.64214,1811.8657 -406.35343,1812.8469 C -403.81934,1813.6029 -402.25839,1815.8182 -402.01774,1819.0002 C -401.68409,1823.4115 -404.06688,1826.5118 -407.97302,1826.7489 C -408.85652,1826.8025 -409.89429,1826.7044 -410.48463,1826.5114 z M -405.83543,1824.302 C -404.67869,1823.38 -404.08366,1822.1636 -403.92311,1820.393 C -403.67696,1817.6784 -404.68728,1815.4865 -406.58119,1814.6265 C -409.05341,1813.5038 -411.81958,1814.7667 -412.59305,1817.3713 C -413.86716,1821.6617 -411.73595,1825.3368 -408.10725,1825.1068 C -407.02108,1825.0379 -406.54859,1824.8705 -405.83543,1824.302 z M -399.55435,1819.6692 L -399.55435,1812.7342 L -398.59779,1812.7342 L -397.64123,1812.7342 L -397.64123,1815.6038 L -397.64123,1818.4735 L -394.05415,1818.4735 L -390.46706,1818.4735 L -390.46706,1815.6038 L -390.46706,1812.7342 L -389.5105,1812.7342 L -388.55395,1812.7342 L -388.55395,1819.6692 L -388.55395,1826.6042 L -389.5105,1826.6042 L -390.46706,1826.6042 L -390.46706,1823.3758 L -390.46706,1820.1475 L -394.05415,1820.1475 L -397.64123,1820.1475 L -397.64123,1823.3758 L -397.64123,1826.6042 L -398.59779,1826.6042 L -399.55435,1826.6042 L -399.55435,1819.6692 z M -600.60021,1807.8585 C -602.12288,1807.3607 -603.42878,1806.1931 -604.18496,1804.6531 C -604.77644,1803.4487 -604.85526,1803.021 -604.85526,1801.0163 C -604.85526,1799.0096 -604.77675,1798.5846 -604.18242,1797.3743 C -602.7434,1794.4439 -599.75773,1793.2128 -596.46901,1794.194 C -593.93493,1794.95 -592.37397,1797.1654 -592.13333,1800.3473 C -591.79968,1804.7587 -594.18246,1807.859 -598.08861,1808.0961 C -598.97211,1808.1497 -600.00988,1808.0515 -600.60021,1807.8585 z M -595.95101,1805.6492 C -594.79428,1804.7271 -594.19925,1803.5108 -594.03869,1801.7401 C -593.79255,1799.0255 -594.80286,1796.8337 -596.69677,1795.9736 C -599.16899,1794.8509 -601.93516,1796.1139 -602.70863,1798.7185 C -603.98274,1803.0088 -601.85153,1806.6839 -598.22284,1806.4539 C -597.13667,1806.3851 -596.66418,1806.2177 -595.95101,1805.6492 z M -481.50894,1799.9669 C -483.03161,1799.4692 -484.3375,1798.3015 -485.09368,1796.7616 C -485.68517,1795.5571 -485.76399,1795.1294 -485.76399,1793.1247 C -485.76399,1791.118 -485.68548,1790.693 -485.09115,1789.4828 C -483.65213,1786.5523 -480.66645,1785.3213 -477.37774,1786.3024 C -474.84366,1787.0584 -473.2827,1789.2738 -473.04205,1792.4557 C -472.70841,1796.8671 -475.09119,1799.9674 -478.99733,1800.2045 C -479.88083,1800.2581 -480.9186,1800.1599 -481.50894,1799.9669 z M -476.85974,1797.7576 C -475.703,1796.8355 -475.10798,1795.6192 -474.94742,1793.8486 C -474.70127,1791.1339 -475.71159,1788.9421 -477.6055,1788.082 C -480.07772,1786.9594 -482.84389,1788.2223 -483.61736,1790.8269 C -484.89147,1795.1172 -482.76026,1798.7923 -479.13156,1798.5623 C -478.04539,1798.4935 -477.5729,1798.3261 -476.85974,1797.7576 z M -598.99636,1780.9332 L -598.99636,1769.4591 L -599.53442,1769.3315 C -604.87607,1768.0651 -639.28545,1760.1616 -639.3092,1760.1957 C -639.32737,1760.2218 -637.31586,1763.7405 -634.83917,1768.0151 C -632.36248,1772.2898 -630.33329,1775.9144 -630.32984,1776.07 C -630.32021,1776.5051 -631.30352,1776.7315 -631.54996,1776.3508 C -631.66551,1776.1723 -634.04506,1772.0715 -636.83784,1767.2379 C -639.63062,1762.4043 -642.04294,1758.4496 -642.19855,1758.4496 C -642.35416,1758.4496 -651.77089,1761.0861 -663.12461,1764.3085 C -674.47834,1767.5309 -683.98375,1770.1643 -684.24774,1770.1604 C -684.51173,1770.1566 -688.92462,1769.0978 -694.05415,1767.8076 C -703.1338,1765.5238 -703.37885,1765.4468 -703.31563,1764.8999 C -703.27992,1764.5909 -703.21288,1764.3002 -703.16667,1764.254 C -703.12046,1764.2078 -700.4726,1764.8242 -697.28253,1765.6238 C -694.09246,1766.4233 -691.4364,1767.0315 -691.38017,1766.9753 C -691.27732,1766.8724 -709.60894,1730.5148 -709.94176,1730.1616 C -710.03977,1730.0575 -715.75984,1731.3543 -722.65302,1733.0433 L -735.18608,1736.1142 L -735.35752,1735.5163 C -735.45182,1735.1875 -735.49868,1734.8881 -735.46165,1734.8511 C -735.30653,1734.696 -710.09953,1728.5575 -709.63182,1728.561 C -709.35027,1728.563 -699.65114,1731.2993 -688.07819,1734.6416 C -676.50524,1737.9839 -667.02118,1740.6994 -667.0025,1740.6761 C -666.98381,1740.6528 -669.23039,1736.7152 -671.99489,1731.9259 C -676.68123,1723.8071 -676.99168,1723.1965 -676.58407,1722.8984 C -676.34361,1722.7226 -676.0733,1722.5787 -675.98338,1722.5787 C -675.89346,1722.5787 -673.48218,1726.6411 -670.62499,1731.6062 C -667.7678,1736.5713 -665.34509,1740.7239 -665.2412,1740.8341 C -665.13731,1740.9443 -657.16101,1738.77 -647.51608,1736.0023 C -634.64353,1732.3083 -629.93113,1731.0467 -629.79666,1731.2582 C -629.22251,1732.1615 -629.29014,1732.185 -647.36224,1737.3614 C -657.12808,1740.1586 -665.31597,1742.4427 -665.55756,1742.4372 C -665.92491,1742.4289 -705.32963,1731.1577 -707.41124,1730.4656 C -708.07699,1730.2442 -708.08531,1730.2518 -707.74607,1730.7729 C -707.55474,1731.0668 -702.36671,1739.1361 -696.21713,1748.7047 C -690.01682,1758.3521 -684.88448,1766.102 -684.69578,1766.102 C -684.50863,1766.102 -674.51147,1763.3113 -662.47986,1759.9004 L -640.60421,1753.6987 L -622.14531,1760.0295 C -611.9929,1763.5115 -602.7919,1766.6761 -601.69865,1767.062 C -599.75077,1767.7495 -599.7176,1767.7529 -600.04572,1767.2317 C -600.22988,1766.9392 -604.11785,1760.1976 -608.68563,1752.2503 C -616.42677,1738.7818 -616.96094,1737.7789 -616.55242,1737.4802 C -616.31137,1737.304 -616.02203,1737.1904 -615.90947,1737.228 C -615.79691,1737.2655 -611.62257,1744.3948 -606.63317,1753.071 L -597.56152,1768.8457 L -597.56152,1780.6265 L -597.56152,1792.4073 L -598.27894,1792.4073 L -598.99636,1792.4073 L -598.99636,1780.9332 z M -628.81863,1791.1188 C -630.3413,1790.621 -631.64719,1789.4533 -632.40337,1787.9134 C -632.99486,1786.7089 -633.07368,1786.2813 -633.07368,1784.2766 C -633.07368,1782.2699 -632.99517,1781.8449 -632.40084,1780.6346 C -630.96182,1777.7041 -627.97614,1776.4731 -624.68743,1777.4543 C -622.15334,1778.2103 -620.59239,1780.4256 -620.35174,1783.6076 C -620.01809,1788.0189 -622.40088,1791.1193 -626.30702,1791.3563 C -627.19052,1791.4099 -628.22829,1791.3118 -628.81863,1791.1188 z M -624.16943,1788.9094 C -623.01269,1787.9874 -622.41766,1786.771 -622.25711,1785.0004 C -622.01096,1782.2858 -623.02127,1780.094 -624.91518,1779.2339 C -627.3874,1778.1112 -630.15357,1779.3742 -630.92705,1781.9787 C -632.20116,1786.2691 -630.06995,1789.9442 -626.44125,1789.7142 C -625.35508,1789.6453 -624.88259,1789.4779 -624.16943,1788.9094 z M -617.88834,1784.2766 L -617.88834,1777.3416 L -616.93179,1777.3416 L -615.97523,1777.3416 L -615.97523,1780.2112 L -615.97523,1783.0809 L -612.38815,1783.0809 L -608.80106,1783.0809 L -608.80106,1780.2112 L -608.80106,1777.3416 L -607.8445,1777.3416 L -606.88795,1777.3416 L -606.88795,1784.2766 L -606.88795,1791.2116 L -607.8445,1791.2116 L -608.80106,1791.2116 L -608.80106,1787.9833 L -608.80106,1784.7549 L -612.38815,1784.7549 L -615.97523,1784.7549 L -615.97523,1787.9833 L -615.97523,1791.2116 L -616.93179,1791.2116 L -617.88834,1791.2116 L -617.88834,1784.2766 z M -800.04223,1776.2922 C -801.5649,1775.7944 -802.87079,1774.6267 -803.62697,1773.0868 C -804.21846,1771.8823 -804.29728,1771.4547 -804.29728,1769.45 C -804.29728,1767.4433 -804.21877,1767.0183 -803.62443,1765.808 C -802.18541,1762.8775 -799.19974,1761.6465 -795.91103,1762.6276 C -793.37694,1763.3837 -791.81598,1765.599 -791.57531,1768.781 C -791.24169,1773.1923 -793.62447,1776.2926 -797.53062,1776.5297 C -798.4141,1776.5833 -799.45189,1776.4852 -800.04223,1776.2922 z M -795.39303,1774.0828 C -794.23629,1773.1607 -793.64126,1771.9444 -793.4807,1770.1738 C -793.23456,1767.4591 -794.24487,1765.2673 -796.13878,1764.4073 C -798.611,1763.2846 -801.37717,1764.5475 -802.15064,1767.1521 C -803.42475,1771.4425 -801.29355,1775.1175 -797.66485,1774.8875 C -796.57868,1774.8187 -796.10619,1774.6513 -795.39303,1774.0828 z M -789.11194,1769.45 L -789.11194,1762.5149 L -788.15539,1762.5149 L -787.19883,1762.5149 L -787.19883,1765.3846 L -787.19883,1768.2543 L -783.61174,1768.2543 L -780.02466,1768.2543 L -780.02466,1765.3846 L -780.02466,1762.5149 L -779.0681,1762.5149 L -778.11154,1762.5149 L -778.11154,1769.45 L -778.11154,1776.385 L -779.0681,1776.385 L -780.02466,1776.385 L -780.02466,1773.1566 L -780.02466,1769.9283 L -783.61174,1769.9283 L -787.19883,1769.9283 L -787.19883,1773.1566 L -787.19883,1776.385 L -788.15539,1776.385 L -789.11194,1776.385 L -789.11194,1769.45 z M -713.95214,1770.0746 C -715.47481,1769.5768 -716.78071,1768.4091 -717.5369,1766.8692 C -718.12838,1765.6647 -718.2072,1765.237 -718.2072,1763.2324 C -718.2072,1761.2256 -718.12868,1760.8007 -717.53437,1759.5904 C -716.09533,1756.6599 -713.10966,1755.4289 -709.82095,1756.41 C -707.28686,1757.166 -705.7259,1759.3814 -705.48525,1762.5633 C -705.15162,1766.9747 -707.5344,1770.075 -711.44055,1770.3121 C -712.32403,1770.3657 -713.36182,1770.2675 -713.95214,1770.0746 z M -709.30294,1767.8652 C -708.14621,1766.9431 -707.55118,1765.7268 -707.39063,1763.9562 C -707.14447,1761.2415 -708.1548,1759.0497 -710.04871,1758.1897 C -712.52093,1757.067 -715.28709,1758.3299 -716.06057,1760.9345 C -717.33467,1765.2248 -715.20347,1768.8999 -711.57476,1768.6699 C -710.48861,1768.6011 -710.0161,1768.4337 -709.30294,1767.8652 z M -731.71856,1763.2324 L -731.71856,1756.2973 L -730.762,1756.2973 L -729.80545,1756.2973 L -729.80545,1759.167 L -729.80545,1762.0367 L -726.21836,1762.0367 L -722.63127,1762.0367 L -722.63127,1759.167 L -722.63127,1756.2973 L -721.67472,1756.2973 L -720.71816,1756.2973 L -720.71816,1763.2324 L -720.71816,1770.1674 L -721.67472,1770.1674 L -722.63127,1770.1674 L -722.63127,1766.939 L -722.63127,1763.7106 L -726.21836,1763.7106 L -729.80545,1763.7106 L -729.80545,1766.939 L -729.80545,1770.1674 L -730.762,1770.1674 L -731.71856,1770.1674 L -731.71856,1763.2324 z M -552.05498,1763.3787 C -553.57765,1762.8809 -554.88354,1761.7132 -555.63972,1760.1733 C -556.23121,1758.9688 -556.31003,1758.5411 -556.31003,1756.5365 C -556.31003,1754.5298 -556.23152,1754.1048 -555.63718,1752.8945 C -554.19816,1749.964 -551.21249,1748.733 -547.92378,1749.7141 C -545.38969,1750.4702 -543.82873,1752.6855 -543.58809,1755.8674 C -543.25444,1760.2788 -545.63722,1763.3791 -549.54337,1763.6162 C -550.42687,1763.6698 -551.46464,1763.5717 -552.05498,1763.3787 z M -547.40578,1761.1693 C -546.24904,1760.2472 -545.65401,1759.0309 -545.49345,1757.2603 C -545.24731,1754.5456 -546.25762,1752.3538 -548.15153,1751.4938 C -550.62375,1750.3711 -553.38992,1751.634 -554.16339,1754.2386 C -555.4375,1758.5289 -553.3063,1762.204 -549.6776,1761.974 C -548.59143,1761.9052 -548.11894,1761.7378 -547.40578,1761.1693 z M -540.88555,1756.5365 L -540.88555,1749.6014 L -539.929,1749.6014 L -538.97244,1749.6014 L -538.97244,1752.4711 L -538.97244,1755.3408 L -535.38535,1755.3408 L -531.79827,1755.3408 L -531.79827,1752.4711 L -531.79827,1749.6014 L -530.84171,1749.6014 L -529.88515,1749.6014 L -529.88515,1756.5365 L -529.88515,1763.4715 L -530.84171,1763.4715 L -531.79827,1763.4715 L -531.79827,1760.2431 L -531.79827,1757.0147 L -535.38535,1757.0147 L -538.97244,1757.0147 L -538.97244,1760.2431 L -538.97244,1763.4715 L -539.929,1763.4715 L -540.88555,1763.4715 L -540.88555,1756.5365 z M -800.82976,1760.004 L -800.82976,1759.4061 L -797.84052,1759.4061 L -794.85128,1759.4061 L -794.85128,1760.004 L -794.85128,1760.6018 L -797.84052,1760.6018 L -800.82976,1760.6018 L -800.82976,1760.004 z M -748.69743,1753.6668 L -748.69743,1746.7318 L -747.74088,1746.7318 L -746.78432,1746.7318 L -746.78432,1749.6014 L -746.78432,1752.4711 L -743.19724,1752.4711 L -739.61015,1752.4711 L -739.61015,1749.6014 L -739.61015,1746.7318 L -738.65359,1746.7318 L -737.69704,1746.7318 L -737.69704,1753.6668 L -737.69704,1760.6018 L -738.65359,1760.6018 L -739.61015,1760.6018 L -739.61015,1757.3735 L -739.61015,1754.1451 L -743.19724,1754.1451 L -746.78432,1754.1451 L -746.78432,1757.3735 L -746.78432,1760.6018 L -747.74088,1760.6018 L -748.69743,1760.6018 L -748.69743,1753.6668 z M -800.35148,1756.2973 L -800.35148,1755.5799 L -797.84052,1755.5799 L -795.32956,1755.5799 L -795.32956,1756.2973 L -795.32956,1757.0147 L -797.84052,1757.0147 L -800.35148,1757.0147 L -800.35148,1756.2973 z M -799.8732,1752.5907 C -799.8732,1752.0005 -799.84742,1751.9928 -797.8684,1751.9928 C -795.91985,1751.9928 -795.86038,1752.0096 -795.7493,1752.5907 L -795.63501,1753.1885 L -797.75412,1753.1885 C -799.85505,1753.1885 -799.8732,1753.1834 -799.8732,1752.5907 z M -799.44593,1748.884 C -799.34155,1748.1728 -799.32751,1748.1666 -797.81338,1748.1666 C -796.97338,1748.1666 -796.28466,1748.2473 -796.28286,1748.346 C -796.28105,1748.4446 -796.21469,1748.7674 -796.13539,1749.0634 C -795.9953,1749.5861 -796.04198,1749.6014 -797.77122,1749.6014 L -799.55123,1749.6014 L -799.44593,1748.884 z M -799.0618,1745.3969 C -798.98196,1745.1889 -798.91665,1744.866 -798.91665,1744.6795 C -798.91665,1744.4383 -798.61387,1744.3404 -797.8684,1744.3404 C -796.98349,1744.3404 -796.79771,1744.4242 -796.67598,1744.8784 C -796.44115,1745.7547 -796.46844,1745.7752 -797.86611,1745.7752 C -798.99054,1745.7752 -799.18353,1745.7142 -799.0618,1745.3969 z M -854.80508,1744.7258 C -856.32775,1744.228 -857.63364,1743.0603 -858.38982,1741.5204 C -858.98131,1740.3159 -859.06013,1739.8883 -859.06013,1737.8836 C -859.06013,1735.8769 -858.98162,1735.4519 -858.38729,1734.2416 C -856.94827,1731.3111 -853.96259,1730.0801 -850.67388,1731.0613 C -848.1398,1731.8173 -846.57884,1734.0326 -846.33817,1737.2146 C -846.00455,1741.6259 -848.38733,1744.7263 -852.29347,1744.9633 C -853.17695,1745.0169 -854.21474,1744.9188 -854.80508,1744.7258 z M -850.15586,1742.5165 C -848.99914,1741.5944 -848.40412,1740.3781 -848.24356,1738.6074 C -847.99741,1735.8928 -849.00773,1733.701 -850.90164,1732.8409 C -853.37386,1731.7182 -856.14003,1732.9812 -856.9135,1735.5858 C -858.18761,1739.8761 -856.0564,1743.5512 -852.4277,1743.3212 C -851.34153,1743.2523 -850.86904,1743.085 -850.15586,1742.5165 z M -872.57149,1737.8836 L -872.57149,1730.9486 L -871.61493,1730.9486 L -870.65838,1730.9486 L -870.65838,1733.8183 L -870.65838,1736.6879 L -867.07129,1736.6879 L -863.4842,1736.6879 L -863.4842,1733.8183 L -863.4842,1730.9486 L -862.52765,1730.9486 L -861.57109,1730.9486 L -861.57109,1737.8836 L -861.57109,1744.8186 L -862.52765,1744.8186 L -863.4842,1744.8186 L -863.4842,1741.5903 L -863.4842,1738.3619 L -867.07129,1738.3619 L -870.65838,1738.3619 L -870.65838,1741.5903 L -870.65838,1744.8186 L -871.61493,1744.8186 L -872.57149,1744.8186 L -872.57149,1737.8836 z M -748.69743,1737.8836 L -748.69743,1730.9486 L -747.68109,1730.9547 L -746.66475,1730.9608 L -743.13811,1736.2755 L -739.61146,1741.5903 L -739.6108,1736.2694 L -739.61015,1730.9486 L -738.65359,1730.9486 L -737.69704,1730.9486 L -737.69704,1737.8836 L -737.69704,1744.8186 L -738.71338,1744.8126 L -739.72972,1744.8065 L -743.25636,1739.4917 L -746.78301,1734.177 L -746.78367,1739.4978 L -746.78432,1744.8186 L -747.74088,1744.8186 L -748.69743,1744.8186 L -748.69743,1737.8836 z M -798.67751,1741.849 C -798.67751,1741.0996 -798.3671,1740.7533 -797.69536,1740.7533 C -797.08608,1740.7533 -797.00353,1740.8389 -797.00353,1741.4707 C -797.00353,1742.1312 -797.06997,1742.1881 -797.84052,1742.1881 C -798.40362,1742.1881 -798.67751,1742.0771 -798.67751,1741.849 z M -811.52313,1730.2099 L -825.18598,1722.3216 L -834.46252,1729.026 C -841.67214,1734.2366 -843.79901,1735.6639 -844.00812,1735.432 C -844.1561,1735.2678 -844.87634,1734.0949 -845.60865,1732.8256 L -846.94011,1730.5177 L -836.49951,1725.8401 L -826.05893,1721.1626 L -825.98851,1705.3103 L -825.91806,1689.4579 L -812.1849,1681.5664 L -798.45174,1673.6748 L -798.38526,1657.8054 L -798.3188,1641.9361 L -788.5141,1636.2627 C -779.09345,1630.8115 -778.69801,1630.6088 -778.41893,1631.0878 C -778.25919,1631.362 -778.12467,1631.6445 -778.12001,1631.7157 C -778.11535,1631.7868 -782.41198,1634.3157 -787.66807,1637.3354 L -797.22459,1642.8258 L -797.22459,1658.2503 L -797.22457,1673.6748 L -783.48617,1681.5664 L -769.74777,1689.4579 L -769.8045,1705.7163 L -769.86125,1721.9747 L -782.77476,1729.4392 C -789.87719,1733.5447 -796.17697,1737.1725 -796.77427,1737.501 L -797.86027,1738.0983 L -811.52313,1730.2099 z M -784.44873,1728.8387 L -771.29608,1721.2367 L -771.24423,1705.706 L -771.19239,1690.1754 L -783.5599,1683.0575 C -790.36202,1679.1428 -796.35786,1675.6884 -796.88396,1675.3811 L -797.84052,1674.8225 L -811.11274,1682.5094 L -824.38496,1690.1963 L -824.38496,1705.7026 L -824.38496,1721.2089 L -811.23231,1728.8205 C -803.99835,1733.0069 -797.97205,1736.434 -797.84052,1736.4363 C -797.70899,1736.4387 -791.68269,1733.0197 -784.44873,1728.8387 z M -786.86918,1686.6492 C -797.68257,1680.4016 -798.12777,1680.1168 -797.89095,1679.597 C -797.75522,1679.2991 -797.56539,1679.0554 -797.46911,1679.0554 C -797.33314,1679.0554 -775.02371,1691.8682 -774.84024,1692.0517 C -774.81609,1692.0758 -774.97727,1692.3351 -775.19845,1692.6277 L -775.60058,1693.1598 L -786.86918,1686.6492 z M -623.55757,1736.3559 C -625.08024,1735.8582 -626.38613,1734.6905 -627.14231,1733.1505 C -627.7338,1731.9461 -627.81262,1731.5184 -627.81262,1729.5137 C -627.81262,1727.507 -627.73411,1727.082 -627.13978,1725.8718 C -625.70076,1722.9413 -622.71508,1721.7103 -619.42637,1722.6914 C -616.89228,1723.4474 -615.33133,1725.6628 -615.09068,1728.8447 C -614.75703,1733.2561 -617.13982,1736.3564 -621.04596,1736.5935 C -621.92946,1736.6471 -622.96723,1736.5489 -623.55757,1736.3559 z M -618.90837,1734.1466 C -617.75163,1733.2245 -617.1566,1732.0082 -616.99605,1730.2375 C -616.7499,1727.5229 -617.76021,1725.3311 -619.65412,1724.471 C -622.12634,1723.3484 -624.89251,1724.6113 -625.66599,1727.2159 C -626.94009,1731.5062 -624.80889,1735.1813 -621.18019,1734.9513 C -620.09402,1734.8825 -619.62153,1734.7151 -618.90837,1734.1466 z M -753.35338,1734.7828 C -753.76534,1734.3276 -753.73559,1734.2361 -752.42035,1731.9132 C -751.67314,1730.5935 -750.96904,1729.5137 -750.85571,1729.5137 C -750.43987,1729.5137 -749.89313,1729.8105 -749.89313,1730.0361 C -749.89313,1730.2574 -752.74113,1735.2531 -752.86728,1735.2531 C -752.90057,1735.2531 -753.11931,1735.0415 -753.35338,1734.7828 z M -756.09575,1732.6828 L -756.62772,1732.252 L -755.45347,1730.2253 C -754.54204,1728.6521 -754.17645,1728.2163 -753.81994,1728.2783 C -753.56733,1728.3221 -753.28293,1728.4321 -753.18792,1728.5227 C -753.09293,1728.6133 -753.58864,1729.6833 -754.28951,1730.9005 L -755.56379,1733.1135 L -756.09575,1732.6828 z M -758.9466,1730.5361 L -759.45884,1730.1116 L -758.44242,1728.4172 C -757.46236,1726.7834 -757.40351,1726.7321 -756.79677,1726.9827 L -756.16749,1727.2427 L -757.19536,1728.996 C -757.76069,1729.9604 -758.27072,1730.7969 -758.32881,1730.855 C -758.38687,1730.913 -758.66487,1730.7695 -758.9466,1730.5361 z M -761.73092,1728.4078 C -762.19712,1728.0669 -762.19346,1728.0415 -761.49133,1726.7435 C -760.85476,1725.5668 -760.71405,1725.4416 -760.17879,1725.5759 C -759.84904,1725.6587 -759.54507,1725.7606 -759.50329,1725.8024 C -759.41012,1725.8955 -760.87645,1728.5184 -761.09835,1728.6555 C -761.18588,1728.7096 -761.47055,1728.5981 -761.73092,1728.4078 z M -764.55635,1726.2995 C -764.97437,1725.9826 -764.97193,1725.9331 -764.49171,1724.9918 C -763.94451,1723.9193 -763.82554,1723.8599 -763.17511,1724.3355 C -762.75102,1724.6456 -762.75537,1724.6942 -763.29303,1725.6508 C -763.91228,1726.7526 -763.93992,1726.7668 -764.55635,1726.2995 z M -694.11702,1725.4491 C -694.54618,1725.1875 -695.08031,1724.5896 -695.30396,1724.1206 C -695.65743,1723.3794 -695.66485,1723.2389 -695.36066,1723.0465 C -694.76655,1722.6707 -694.48265,1722.7894 -694.16993,1723.5444 C -693.81506,1724.4011 -693.2857,1724.731 -692.26546,1724.731 C -690.85641,1724.731 -689.91242,1723.1211 -690.5848,1721.8647 C -690.87057,1721.3307 -692.26352,1720.8291 -692.843,1721.0515 C -693.17328,1721.1782 -693.24255,1721.1005 -693.17842,1720.6755 C -693.12146,1720.298 -692.82221,1720.0456 -692.16494,1719.8207 C -690.74708,1719.3356 -690.41046,1718.4504 -691.30405,1717.5568 C -692.19398,1716.6669 -694.01957,1717.2139 -694.44789,1718.4989 C -694.51821,1718.7098 -694.73348,1718.7588 -695.09106,1718.6454 C -695.77012,1718.4298 -695.60823,1717.733 -694.64995,1716.7466 C -693.69963,1715.7684 -691.9952,1715.613 -690.84421,1716.3996 C -689.52397,1717.3018 -689.27874,1718.969 -690.33343,1719.8721 C -690.76979,1720.2457 -690.75785,1720.2835 -689.96817,1721.0283 C -687.44814,1723.4049 -691.09545,1727.2914 -694.11702,1725.4491 z M -767.30896,1724.2381 C -767.82988,1723.8162 -767.83653,1723.7697 -767.45818,1723.1923 C -767.11947,1722.6754 -766.98804,1722.6266 -766.54864,1722.8549 C -766.26615,1723.0017 -766.00231,1723.1489 -765.96235,1723.182 C -765.92238,1723.2151 -766.08634,1723.5656 -766.32672,1723.9609 C -766.7594,1724.6723 -766.76925,1724.6751 -767.30896,1724.2381 z M -683.48807,1721.754 C -684.99448,1721.2167 -685.78148,1720.4253 -686.71051,1718.5133 C -687.2646,1717.373 -687.35019,1716.8959 -687.35393,1714.9263 C -687.35871,1712.4149 -686.86668,1710.9061 -685.61168,1709.5835 C -684.18471,1708.0797 -681.53463,1707.3983 -679.37997,1707.9811 C -678.13093,1708.3189 -676.62775,1709.6708 -676.12333,1710.9098 L -675.76267,1711.7957 L -676.65811,1712.0432 C -677.1506,1712.1793 -677.58088,1712.2111 -677.61428,1712.1139 C -677.85702,1711.407 -678.75344,1710.3001 -679.40469,1709.903 C -681.13461,1708.8483 -683.78361,1709.6637 -684.84729,1711.5783 C -685.36753,1712.5147 -685.44514,1712.9494 -685.44514,1714.9263 C -685.44514,1716.9032 -685.36753,1717.3378 -684.84729,1718.2742 C -684.04871,1719.7116 -682.57117,1720.4995 -680.94347,1720.3559 C -679.50559,1720.229 -678.6801,1719.638 -677.91226,1718.1856 C -677.33672,1717.097 -677.28317,1717.0605 -676.47742,1717.2075 C -676.01708,1717.2916 -675.60605,1717.3941 -675.56402,1717.4353 C -675.31094,1717.6838 -676.69074,1720.0935 -677.46609,1720.7572 C -678.99585,1722.0666 -681.46535,1722.4754 -683.48807,1721.754 z M -708.7612,1714.9263 L -708.7612,1707.9912 L -707.80465,1707.9912 L -706.84809,1707.9912 L -706.84809,1710.8609 L -706.84809,1713.7306 L -703.261,1713.7306 L -699.67392,1713.7306 L -699.67392,1710.8609 L -699.67392,1707.9912 L -698.71736,1707.9912 L -697.76081,1707.9912 L -697.76081,1714.9263 L -697.76081,1721.8613 L -698.71736,1721.8613 L -699.67392,1721.8613 L -699.67392,1718.6329 L -699.67392,1715.4045 L -703.261,1715.4045 L -706.84809,1715.4045 L -706.84809,1718.6329 L -706.84809,1721.8613 L -707.80465,1721.8613 L -708.7612,1721.8613 L -708.7612,1714.9263 z M -829.32605,1688.4248 C -829.69655,1688.2733 -829.69655,1688.2108 -829.32605,1687.5038 C -828.92966,1686.7473 -828.92714,1686.7465 -828.37667,1687.1946 C -827.91996,1687.5664 -827.86984,1687.7283 -828.08614,1688.1325 C -828.3562,1688.637 -828.64219,1688.7045 -829.32605,1688.4248 z M -832.43888,1687.1014 L -833.07166,1686.8274 L -832.42577,1685.7121 C -831.7816,1684.5998 -831.77838,1684.5979 -831.2175,1685.021 L -830.65512,1685.4452 L -831.2306,1686.4103 C -831.77111,1687.3167 -831.84455,1687.3587 -832.43888,1687.1014 z M -835.68428,1685.7438 C -835.98022,1685.6249 -836.22235,1685.4565 -836.22235,1685.3696 C -836.22235,1685.0759 -834.75379,1682.6425 -834.57652,1682.6425 C -834.47979,1682.6425 -834.20669,1682.7843 -833.96961,1682.9577 C -833.56183,1683.2558 -833.57995,1683.3461 -834.30546,1684.6316 C -834.72722,1685.379 -835.08895,1685.9836 -835.10927,1685.9753 C -835.1296,1685.9669 -835.38835,1685.8628 -835.68428,1685.7438 z M -839.18291,1684.2474 C -839.57539,1683.9604 -839.53603,1683.8208 -838.6101,1682.2147 C -838.06324,1681.2663 -837.53809,1680.4902 -837.44308,1680.4902 C -837.34805,1680.4902 -837.07339,1680.6342 -836.83272,1680.8102 C -836.41856,1681.113 -836.44869,1681.2219 -837.39542,1682.8429 C -837.94556,1683.7849 -838.478,1684.5556 -838.57858,1684.5556 C -838.67917,1684.5556 -838.95111,1684.4169 -839.18291,1684.2474 z M -842.50152,1682.8251 C -842.86608,1682.5503 -842.79303,1682.3333 -841.69533,1680.4304 C -840.48806,1678.3376 -840.12017,1678.0341 -839.57988,1678.6851 C -839.34672,1678.9661 -839.51216,1679.4071 -840.44738,1680.9977 C -841.08294,1682.0786 -841.71494,1683 -841.85178,1683.0451 C -841.98864,1683.0903 -842.28101,1682.9912 -842.50152,1682.8251 z M -854.80508,1681.354 C -856.32775,1680.8562 -857.63364,1679.6885 -858.38982,1678.1486 C -858.98131,1676.9441 -859.06013,1676.5164 -859.06013,1674.5117 C -859.06013,1672.505 -858.98162,1672.08 -858.38729,1670.8698 C -856.94827,1667.9393 -853.96259,1666.7083 -850.67388,1667.6894 C -848.1398,1668.4454 -846.57884,1670.6608 -846.33817,1673.8427 C -846.00455,1678.2541 -848.38733,1681.3544 -852.29347,1681.5915 C -853.17695,1681.6451 -854.21474,1681.5469 -854.80508,1681.354 z M -850.15586,1679.1446 C -848.99914,1678.2225 -848.40412,1677.0062 -848.24356,1675.2355 C -847.99741,1672.5209 -849.00773,1670.3291 -850.90164,1669.4691 C -853.37386,1668.3464 -856.14003,1669.6093 -856.9135,1672.2139 C -858.18761,1676.5042 -856.0564,1680.1793 -852.4277,1679.9493 C -851.34153,1679.8805 -850.86904,1679.7131 -850.15586,1679.1446 z M -845.8322,1681.4363 C -846.18957,1681.2278 -846.07222,1680.9172 -844.7963,1678.6935 C -843.37052,1676.2086 -843.00187,1675.8674 -842.45496,1676.5264 C -842.22861,1676.7991 -842.44757,1677.3475 -843.55275,1679.2765 C -844.31204,1680.6017 -845.04486,1681.6826 -845.18124,1681.6786 C -845.31762,1681.6747 -845.61056,1681.5656 -845.8322,1681.4363 z M -872.57149,1674.5117 L -872.57149,1667.5767 L -871.61493,1667.5767 L -870.65838,1667.5767 L -870.65838,1670.4464 L -870.65838,1673.3161 L -867.07129,1673.3161 L -863.4842,1673.3161 L -863.4842,1670.4464 L -863.4842,1667.5767 L -862.52765,1667.5767 L -861.57109,1667.5767 L -861.57109,1674.5117 L -861.57109,1681.4468 L -862.52765,1681.4468 L -863.4842,1681.4468 L -863.4842,1678.2184 L -863.4842,1674.99 L -867.07129,1674.99 L -870.65838,1674.99 L -870.65838,1678.2184 L -870.65838,1681.4468 L -871.61493,1681.4468 L -872.57149,1681.4468 L -872.57149,1674.5117 z M -772.78037,1634.0044 C -774.30304,1633.5066 -775.60893,1632.3389 -776.36511,1630.799 C -776.9566,1629.5945 -777.03542,1629.1669 -777.03542,1627.1622 C -777.03542,1625.1555 -776.95691,1624.7305 -776.36258,1623.5202 C -774.92356,1620.5897 -771.93788,1619.3587 -768.64917,1620.3399 C -766.11508,1621.0959 -764.55413,1623.3112 -764.31346,1626.4932 C -763.97983,1630.9045 -766.36262,1634.0049 -770.26876,1634.2419 C -771.15224,1634.2955 -772.19003,1634.1974 -772.78037,1634.0044 z M -768.13117,1631.7951 C -766.97443,1630.873 -766.3794,1629.6567 -766.21885,1627.886 C -765.9727,1625.1714 -766.98301,1622.9796 -768.87692,1622.1195 C -771.34914,1620.9968 -774.11531,1622.2598 -774.88879,1624.8643 C -776.1629,1629.1547 -774.03169,1632.8298 -770.40299,1632.5998 C -769.31682,1632.5309 -768.84433,1632.3636 -768.13117,1631.7951 z M -761.61095,1627.1622 L -761.61095,1620.2272 L -760.65439,1620.2272 L -759.69783,1620.2272 L -759.69783,1623.0968 L -759.69783,1625.9665 L -756.11075,1625.9665 L -752.52366,1625.9665 L -752.52366,1623.0968 L -752.52366,1620.2272 L -751.5671,1620.2272 L -750.61055,1620.2272 L -750.61055,1627.1622 L -750.61055,1634.0972 L -751.5671,1634.0972 L -752.52366,1634.0972 L -752.52366,1630.8689 L -752.52366,1627.6405 L -756.11075,1627.6405 L -759.69783,1627.6405 L -759.69783,1630.8689 L -759.69783,1634.0972 L -760.65439,1634.0972 L -761.61095,1634.0972 L -761.61095,1627.1622 z"
       id="path2453"
       style="fill:#000000" />
  </g>
</svg>
